<?xml version="1.0" standalone="no"?>
<!DOCTYPE svg PUBLIC "-//W3C//DTD SVG 20010904//EN"
 "http://www.w3.org/TR/2001/REC-SVG-20010904/DTD/svg10.dtd">
<svg version="1.0" xmlns="http://www.w3.org/2000/svg"
 width="1024.000000pt" height="1024.000000pt" viewBox="0 0 1024.000000 1024.000000"
 preserveAspectRatio="xMidYMid meet">

<g transform="translate(0.000000,1024.000000) scale(0.100000,-0.100000)"
fill="#000000" stroke="none">
<path d="M1860 7287 l0 -73 113 -26 c287 -69 429 -205 489 -468 22 -95 22 -99
26 -1575 3 -1512 2 -1585 -34 -1730 -61 -239 -224 -361 -526 -391 l-68 -7 0
-73 0 -74 1095 0 c602 0 1098 -1 1103 -2 4 -2 8 32 10 74 l3 76 -58 7 c-216
24 -319 61 -412 150 -67 64 -111 143 -143 260 -22 80 -23 84 -28 1060 l-5 980
-106 195 c-59 107 -290 531 -514 943 l-407 747 -269 0 -269 0 0 -73z"/>
<path d="M2621 7338 c7 -13 72 -131 144 -263 437 -793 681 -1238 750 -1365
112 -207 284 -520 383 -695 47 -82 252 -449 457 -815 677 -1212 760 -1360 765
-1360 13 0 1184 2101 1905 3415 142 259 328 598 415 755 86 157 165 300 174
318 l17 32 -468 0 -468 0 -116 -208 c-64 -114 -329 -583 -589 -1042 -260 -459
-543 -961 -630 -1115 -221 -395 -233 -416 -241 -407 -4 4 -36 59 -72 122 -36
63 -166 293 -289 510 -124 217 -307 541 -408 720 -101 179 -285 505 -410 725
-125 220 -264 466 -309 548 l-83 147 -469 0 -470 0 12 -22z"/>
<path d="M7827 7338 c-8 -13 -79 -142 -157 -288 -79 -146 -279 -515 -445 -820
-166 -305 -325 -598 -353 -651 l-52 -95 -3 -965 c-2 -530 -7 -982 -11 -1004
-62 -329 -204 -452 -563 -490 l-63 -7 0 -74 0 -74 1095 0 c602 0 1098 0 1103
0 4 0 7 33 7 72 l0 73 -99 12 c-54 7 -124 20 -155 29 -181 52 -296 178 -348
380 -17 65 -18 170 -18 1654 0 1488 1 1589 18 1650 67 246 216 383 487 449
l110 26 0 73 0 72 -270 0 c-269 0 -270 0 -283 -22z"/>
</g>
</svg>
