<?xml version="1.0" standalone="no"?>
<!DOCTYPE svg PUBLIC "-//W3C//DTD SVG 20010904//EN"
 "http://www.w3.org/TR/2001/REC-SVG-20010904/DTD/svg10.dtd">
<svg version="1.0" xmlns="http://www.w3.org/2000/svg"
 width="500.000000pt" height="500.000000pt" viewBox="0 0 500.000000 500.000000"
 preserveAspectRatio="xMidYMid meet">

<g transform="translate(0.000000,500.000000) scale(0.100000,-0.100000)"
fill="#000000" stroke="none">
<path d="M930 3780 c0 -17 5 -30 13 -30 42 -1 152 -22 176 -34 47 -25 101 -89
119 -141 15 -45 17 -138 20 -1028 3 -1069 4 -1053 -54 -1140 -53 -81 -115
-121 -214 -139 -57 -10 -60 -12 -60 -39 l0 -29 575 0 575 0 0 29 c0 27 -2 29
-57 36 -32 4 -74 13 -93 21 -50 21 -105 79 -132 138 l-23 51 -5 745 -5 745
-61 85 c-33 47 -101 144 -149 215 -49 72 -112 162 -140 200 -28 39 -60 84 -71
102 -10 18 -52 80 -93 138 l-74 105 -123 0 -124 0 0 -30z"/>
<path d="M1320 3805 c0 -9 85 -134 239 -355 83 -118 184 -264 226 -325 76
-111 146 -212 284 -409 75 -106 140 -201 293 -427 43 -63 110 -159 149 -214
39 -55 82 -118 96 -140 14 -22 62 -91 106 -154 44 -62 94 -135 111 -162 17
-26 67 -99 111 -161 44 -62 101 -146 127 -185 l48 -73 290 0 c159 0 290 2 290
5 0 5 -67 103 -266 390 -68 99 -158 230 -199 290 -41 61 -131 191 -200 290
-68 99 -164 237 -212 307 -48 70 -155 225 -238 344 -82 119 -159 230 -170 247
-10 18 -51 77 -90 132 -40 55 -99 141 -132 190 -33 50 -85 126 -116 170 -32
44 -82 117 -112 163 l-55 82 -290 0 c-159 0 -290 -2 -290 -5z"/>
<path d="M2920 3781 c0 -28 3 -30 48 -36 92 -13 124 -26 172 -71 89 -83 84
-38 88 -873 l3 -733 102 -147 c101 -145 203 -293 285 -413 23 -35 81 -118 128
-185 l86 -123 119 0 119 0 0 29 c0 27 -2 29 -57 35 -32 4 -75 11 -96 17 -56
15 -122 80 -149 147 l-23 57 -3 954 c-2 620 1 973 8 1010 15 82 63 173 117
220 42 38 92 59 176 76 22 4 27 11 27 35 l0 30 -575 0 -575 0 0 -29z"/>
</g>
</svg>
