<?xml version="1.0" standalone="no"?>
<!DOCTYPE svg PUBLIC "-//W3C//DTD SVG 20010904//EN"
 "http://www.w3.org/TR/2001/REC-SVG-20010904/DTD/svg10.dtd">
<svg version="1.0" xmlns="http://www.w3.org/2000/svg"
 width="1024.000000pt" height="1024.000000pt" viewBox="0 0 1024.000000 1024.000000"
 preserveAspectRatio="xMidYMid meet">

<g transform="translate(0.000000,1024.000000) scale(0.100000,-0.100000)"
fill="#000000" stroke="none">
<path d="M4810 8074 c-377 -32 -648 -90 -893 -189 -582 -238 -959 -663 -1079
-1215 -19 -90 -22 -135 -22 -310 -1 -224 8 -288 66 -470 132 -412 455 -744
925 -947 232 -100 413 -154 1198 -354 476 -122 599 -156 726 -204 376 -143
552 -336 590 -648 14 -114 6 -212 -27 -325 -40 -138 -86 -214 -189 -317 -138
-137 -280 -208 -518 -257 -140 -29 -544 -32 -712 -5 -585 94 -924 361 -1040
821 -13 50 -26 121 -30 159 l-7 67 -494 0 -494 0 0 -852 0 -852 28 25 c350
321 482 439 490 439 5 0 49 -23 97 -51 301 -173 644 -296 1010 -364 286 -52
386 -60 770 -60 322 0 376 2 511 23 863 129 1453 545 1649 1163 62 195 91 432
82 649 -28 614 -301 1036 -842 1299 -296 145 -603 237 -1400 421 -649 150
-870 236 -1041 406 -78 77 -139 186 -165 294 -22 91 -18 300 9 393 91 320 322
507 712 578 118 22 500 19 620 -4 124 -24 265 -70 365 -117 345 -165 552 -469
578 -850 l2 -35 528 -3 527 -2 0 822 0 822 -27 -26 c-210 -193 -485 -438 -492
-438 -5 0 -40 19 -77 42 -94 57 -344 176 -484 231 -394 153 -796 234 -1210
241 -107 2 -215 2 -240 0z"/>
</g>
</svg>
